<svg width="7378" height="1815" viewBox="0 0 7378 1815" fill="none" xmlns="http://www.w3.org/2000/svg">
<path d="M2774.98 629.525C2774.98 596.441 2786.21 568.675 2808.66 546.225C2832.29 522.594 2860.65 510.778 2893.73 510.778H3925.23C3958.31 510.778 3986.67 522.003 4010.3 544.453C4032.75 568.084 4043.97 596.441 4043.97 629.525C4043.97 662.608 4032.16 690.966 4008.53 714.597C3986.08 737.046 3958.31 748.271 3925.23 748.271H3530V1466.07C3522.91 1536.96 3483.92 1575.36 3413.02 1581.27C3379.94 1581.27 3350.99 1570.63 3326.18 1549.37C3302.55 1526.92 3290.73 1499.15 3290.73 1466.07V748.271H2893.73C2860.65 748.271 2832.88 736.456 2810.43 712.825C2786.8 690.375 2774.98 662.608 2774.98 629.525ZM4352.36 734.093C4384.26 735.274 4411.44 747.09 4433.89 769.539C4456.34 790.807 4468.15 817.392 4469.33 849.294V1462.52C4462.24 1533.41 4423.25 1571.82 4352.36 1577.72C4319.28 1577.72 4290.33 1567.09 4265.52 1545.82C4241.88 1523.37 4230.07 1495.61 4230.07 1462.52V849.294C4231.25 816.211 4243.66 789.035 4267.29 767.767C4290.92 745.317 4319.28 734.093 4352.36 734.093ZM4203.48 503.689C4203.48 470.606 4217.66 442.248 4246.02 418.617C4274.38 394.986 4308.64 383.17 4348.81 383.17C4388.99 383.17 4423.25 394.986 4451.61 418.617C4479.97 442.248 4494.15 470.606 4494.15 503.689C4494.15 537.954 4479.97 566.902 4451.61 590.534C4423.25 614.165 4388.99 625.98 4348.81 625.98C4308.64 625.98 4274.38 614.165 4246.02 590.534C4217.66 566.902 4203.48 537.954 4203.48 503.689ZM5061.29 725.231C5102.65 725.231 5142.82 732.32 5181.81 746.499C5221.98 760.678 5260.39 781.355 5297.01 808.531C5302.92 814.438 5309.42 820.346 5316.51 826.254C5322.42 820.346 5328.92 814.438 5336 808.531C5372.63 781.355 5410.44 760.678 5449.43 746.499C5489.61 732.32 5529.78 725.231 5569.95 725.231C5611.31 725.231 5651.48 732.32 5690.47 746.499C5730.64 760.678 5768.45 781.946 5803.9 810.303C5840.53 837.479 5872.43 874.107 5899.61 920.188C5927.96 966.268 5942.14 1021.21 5942.14 1085.01V1462.52C5935.05 1533.41 5896.06 1571.82 5825.17 1577.72C5792.09 1577.72 5763.14 1567.09 5738.32 1545.82C5714.69 1523.37 5702.88 1495.61 5702.88 1462.52V1099.19C5702.88 1070.84 5697.56 1047.2 5686.93 1028.3C5676.29 1008.21 5664.48 992.853 5651.48 982.219C5638.48 970.404 5624.9 962.133 5610.72 957.407C5596.54 951.499 5582.36 948.545 5568.18 948.545C5554 948.545 5539.82 951.499 5525.64 957.407C5512.65 962.133 5499.65 970.404 5486.65 982.219C5473.66 992.853 5461.84 1008.21 5451.21 1028.3C5440.57 1047.2 5434.66 1070.84 5433.48 1099.19V1462.52C5426.39 1533.41 5387.4 1571.82 5316.51 1577.72C5283.43 1577.72 5254.48 1567.09 5229.66 1545.82C5206.03 1523.37 5194.22 1495.61 5194.22 1462.52V1099.19C5194.22 1070.84 5188.9 1047.2 5178.27 1028.3C5167.63 1008.21 5155.82 992.853 5142.82 982.219C5129.82 970.404 5116.24 962.133 5102.06 957.407C5087.88 951.499 5073.7 948.545 5059.52 948.545C5045.34 948.545 5031.16 951.499 5016.98 957.407C5003.99 962.133 4990.99 970.404 4977.99 982.219C4965 992.853 4953.18 1008.21 4942.55 1028.3C4931.91 1047.2 4926 1070.84 4924.82 1099.19V1462.52C4918.92 1533.41 4880.52 1571.82 4809.62 1577.72C4776.54 1577.72 4747.59 1567.09 4722.78 1545.82C4699.15 1523.37 4687.33 1495.61 4687.33 1462.52V1085.01C4689.69 1021.21 4704.46 966.268 4731.64 920.188C4758.81 874.107 4790.72 837.479 4827.35 810.303C4863.97 781.946 4901.78 760.678 4940.77 746.499C4980.95 732.32 5021.12 725.231 5061.29 725.231ZM6525.24 1556.46C6421.26 1552.91 6342.69 1528.69 6289.52 1483.79C6236.35 1437.71 6197.95 1386.31 6174.32 1329.6C6150.69 1271.7 6138.87 1213.21 6138.87 1154.14C6138.87 1092.69 6150.1 1033.62 6172.55 976.902C6196.18 919.006 6234.58 867.608 6287.75 822.709C6342.1 776.629 6410.63 752.997 6493.34 751.816H7166.83C7199.91 751.816 7227.68 763.041 7250.13 785.49C7273.76 806.758 7285.57 832.752 7285.57 863.473C7285.57 895.375 7273.76 922.551 7250.13 945C7227.68 966.268 7199.91 976.902 7166.83 976.902H6503.97C6477.98 976.902 6454.94 985.764 6434.85 1003.49C6415.95 1021.21 6401.77 1044.25 6392.32 1072.61C6384.04 1100.97 6379.91 1128.73 6379.91 1155.91C6379.91 1185.45 6384.04 1214.39 6392.32 1242.75C6401.77 1271.11 6415.95 1294.15 6434.85 1311.87C6454.94 1328.42 6477.98 1337.28 6503.97 1338.46H7166.83C7199.91 1338.46 7227.68 1349.09 7250.13 1370.36C7273.76 1391.63 7285.57 1417.03 7285.57 1446.57C7285.57 1477.29 7273.76 1503.29 7250.13 1524.55C7227.68 1545.82 7199.91 1556.46 7166.83 1556.46H6525.24ZM7264.3 1150.59C7264.3 1173.04 7254.26 1192.54 7234.17 1209.08C7216.45 1224.44 7194 1232.12 7166.83 1232.12H6587.27C6560.1 1232.12 6537.06 1224.44 6518.15 1209.08C6499.25 1192.54 6489.79 1173.04 6489.79 1150.59C6489.79 1129.32 6499.25 1110.42 6518.15 1093.88C6537.06 1078.52 6560.1 1070.84 6587.27 1070.84H7166.83C7194 1070.84 7217.04 1079.11 7235.95 1095.65C7254.85 1111.01 7264.3 1129.32 7264.3 1150.59Z" fill="white"/>
<path d="M824.051 658.695C777.003 625.832 765.504 561.043 798.367 513.995C831.23 466.946 896.019 455.448 943.068 488.311C1023.37 544.325 1087.5 618.265 1131.54 702.675C1175.88 787.651 1200 882.598 1200 980.016C1200 1145.66 1132.82 1295.67 1024.24 1404.26C915.658 1512.84 765.646 1580.02 600 1580.02C434.354 1580.02 284.342 1512.84 175.758 1404.26C67.1802 1295.67 0 1145.66 0 980.016C0 882.302 24.2236 787.146 68.7392 702.083C113.095 617.322 177.613 543.185 258.368 487.177C305.638 454.542 370.434 466.404 403.069 513.674C435.704 560.944 423.841 625.74 376.571 658.375C323.848 694.941 281.791 743.203 252.976 798.275C224.304 853.069 208.701 915.264 208.701 980.016C208.701 1088.05 252.514 1185.89 323.318 1256.7C394.127 1327.5 491.965 1371.32 600 1371.32C708.035 1371.32 805.873 1327.5 876.682 1256.7C947.486 1185.89 991.299 1088.05 991.299 980.016C991.299 915.467 975.795 853.482 947.301 798.866C918.511 743.678 876.571 695.329 824.051 658.695Z" fill="#F1AB29"/>
<path fill-rule="evenodd" clip-rule="evenodd" d="M597.801 379.687C655.196 379.687 702.146 426.692 702.146 484.031V672.766C702.146 730.106 655.196 777.111 597.801 777.111C540.407 777.111 493.457 730.161 493.457 672.766V484.031C493.457 426.636 540.407 379.687 597.801 379.687Z" fill="#F1AB29"/>
<path d="M1792.82 599.382C1846.62 599.382 1899.38 605.589 1951.11 618.004C2003.88 630.419 2054.06 649.042 2101.65 673.872C2149.24 697.668 2191.14 729.74 2227.35 770.089C2264.59 810.438 2284.77 858.547 2287.87 914.415V979.594V1474.65C2281.67 1536.72 2247.52 1570.35 2185.45 1575.52C2156.48 1575.52 2131.13 1566.21 2109.41 1547.58C2088.71 1527.93 2078.37 1503.61 2078.37 1474.65V962.523C2076.3 930.451 2063.88 904.069 2041.12 883.377C2019.4 861.651 1994.57 844.58 1966.63 832.165C1939.73 819.75 1911.28 810.438 1881.28 804.231C1852.31 798.023 1822.82 794.919 1792.82 794.919C1762.82 794.919 1732.81 798.023 1702.81 804.231C1673.84 810.438 1645.39 819.75 1617.46 832.165C1590.56 844.58 1565.73 861.651 1542.97 883.377C1521.24 904.069 1509.34 930.451 1507.27 962.523V1474.65C1502.1 1536.72 1468.48 1570.35 1406.4 1575.52C1377.43 1575.52 1352.08 1566.21 1330.36 1547.58C1309.67 1527.93 1299.32 1503.61 1299.32 1474.65V979.594V914.415C1302.42 858.547 1322.08 810.438 1358.29 770.089C1394.5 729.74 1436.4 697.668 1484 673.872C1531.59 649.042 1581.25 630.419 1632.98 618.004C1685.74 605.589 1739.02 599.382 1792.82 599.382Z" fill="#F1AB29"/>
</svg>
