<svg width="7334" height="1815" viewBox="0 0 7334 1815" fill="none" xmlns="http://www.w3.org/2000/svg">
<path d="M2730.98 629.525C2730.98 596.441 2742.21 568.675 2764.66 546.225C2788.29 522.594 2816.65 510.778 2849.73 510.778H3881.23C3914.31 510.778 3942.67 522.003 3966.3 544.453C3988.75 568.084 3999.97 596.441 3999.97 629.525C3999.97 662.608 3988.16 690.966 3964.53 714.597C3942.08 737.046 3914.31 748.271 3881.23 748.271H3486V1466.07C3478.91 1536.96 3439.92 1575.36 3369.02 1581.27C3335.94 1581.27 3306.99 1570.63 3282.18 1549.37C3258.55 1526.92 3246.73 1499.15 3246.73 1466.07V748.271H2849.73C2816.65 748.271 2788.88 736.456 2766.43 712.825C2742.8 690.375 2730.98 662.608 2730.98 629.525ZM4308.36 734.093C4340.26 735.274 4367.44 747.09 4389.89 769.539C4412.34 790.807 4424.15 817.392 4425.33 849.294V1462.52C4418.24 1533.41 4379.25 1571.82 4308.36 1577.72C4275.28 1577.72 4246.33 1567.09 4221.52 1545.82C4197.88 1523.37 4186.07 1495.61 4186.07 1462.52V849.294C4187.25 816.211 4199.66 789.035 4223.29 767.767C4246.92 745.317 4275.28 734.093 4308.36 734.093ZM4159.48 503.689C4159.48 470.606 4173.66 442.248 4202.02 418.617C4230.38 394.986 4264.64 383.17 4304.81 383.17C4344.99 383.17 4379.25 394.986 4407.61 418.617C4435.97 442.248 4450.15 470.606 4450.15 503.689C4450.15 537.954 4435.97 566.902 4407.61 590.534C4379.25 614.165 4344.99 625.98 4304.81 625.98C4264.64 625.98 4230.38 614.165 4202.02 590.534C4173.66 566.902 4159.48 537.954 4159.48 503.689ZM5017.29 725.231C5058.65 725.231 5098.82 732.32 5137.81 746.499C5177.98 760.678 5216.39 781.355 5253.01 808.531C5258.92 814.438 5265.42 820.346 5272.51 826.254C5278.42 820.346 5284.92 814.438 5292 808.531C5328.63 781.355 5366.44 760.678 5405.43 746.499C5445.61 732.32 5485.78 725.231 5525.95 725.231C5567.31 725.231 5607.48 732.32 5646.47 746.499C5686.64 760.678 5724.45 781.946 5759.9 810.303C5796.53 837.479 5828.43 874.107 5855.61 920.188C5883.96 966.268 5898.14 1021.21 5898.14 1085.01V1462.52C5891.05 1533.41 5852.06 1571.82 5781.17 1577.72C5748.09 1577.72 5719.14 1567.09 5694.32 1545.82C5670.69 1523.37 5658.88 1495.61 5658.88 1462.52V1099.19C5658.88 1070.84 5653.56 1047.2 5642.93 1028.3C5632.29 1008.21 5620.48 992.853 5607.48 982.219C5594.48 970.404 5580.9 962.133 5566.72 957.407C5552.54 951.499 5538.36 948.545 5524.18 948.545C5510 948.545 5495.82 951.499 5481.64 957.407C5468.65 962.133 5455.65 970.404 5442.65 982.219C5429.66 992.853 5417.84 1008.21 5407.21 1028.3C5396.57 1047.2 5390.66 1070.84 5389.48 1099.19V1462.52C5382.39 1533.41 5343.4 1571.82 5272.51 1577.72C5239.43 1577.72 5210.48 1567.09 5185.66 1545.82C5162.03 1523.37 5150.22 1495.61 5150.22 1462.52V1099.19C5150.22 1070.84 5144.9 1047.2 5134.27 1028.3C5123.63 1008.21 5111.82 992.853 5098.82 982.219C5085.82 970.404 5072.24 962.133 5058.06 957.407C5043.88 951.499 5029.7 948.545 5015.52 948.545C5001.34 948.545 4987.16 951.499 4972.98 957.407C4959.99 962.133 4946.99 970.404 4933.99 982.219C4921 992.853 4909.18 1008.21 4898.55 1028.3C4887.91 1047.2 4882 1070.84 4880.82 1099.19V1462.52C4874.92 1533.41 4836.52 1571.82 4765.62 1577.72C4732.54 1577.72 4703.59 1567.09 4678.78 1545.82C4655.15 1523.37 4643.33 1495.61 4643.33 1462.52V1085.01C4645.69 1021.21 4660.46 966.268 4687.64 920.188C4714.81 874.107 4746.72 837.479 4783.35 810.303C4819.97 781.946 4857.78 760.678 4896.77 746.499C4936.95 732.32 4977.12 725.231 5017.29 725.231ZM6481.24 1556.46C6377.26 1552.91 6298.69 1528.69 6245.52 1483.79C6192.35 1437.71 6153.95 1386.31 6130.32 1329.6C6106.69 1271.7 6094.87 1213.21 6094.87 1154.14C6094.87 1092.69 6106.1 1033.62 6128.55 976.902C6152.18 919.006 6190.58 867.608 6243.75 822.709C6298.1 776.629 6366.63 752.997 6449.34 751.816H7122.83C7155.91 751.816 7183.68 763.041 7206.13 785.49C7229.76 806.758 7241.57 832.752 7241.57 863.473C7241.57 895.375 7229.76 922.551 7206.13 945C7183.68 966.268 7155.91 976.902 7122.83 976.902H6459.97C6433.98 976.902 6410.94 985.764 6390.85 1003.49C6371.95 1021.21 6357.77 1044.25 6348.32 1072.61C6340.04 1100.97 6335.91 1128.73 6335.91 1155.91C6335.91 1185.45 6340.04 1214.39 6348.32 1242.75C6357.77 1271.11 6371.95 1294.15 6390.85 1311.87C6410.94 1328.42 6433.98 1337.28 6459.97 1338.46H7122.83C7155.91 1338.46 7183.68 1349.09 7206.13 1370.36C7229.76 1391.63 7241.57 1417.03 7241.57 1446.57C7241.57 1477.29 7229.76 1503.29 7206.13 1524.55C7183.68 1545.82 7155.91 1556.46 7122.83 1556.46H6481.24ZM7220.3 1150.59C7220.3 1173.04 7210.26 1192.54 7190.17 1209.08C7172.45 1224.44 7150 1232.12 7122.83 1232.12H6543.27C6516.1 1232.12 6493.06 1224.44 6474.15 1209.08C6455.25 1192.54 6445.79 1173.04 6445.79 1150.59C6445.79 1129.32 6455.25 1110.42 6474.15 1093.88C6493.06 1078.52 6516.1 1070.84 6543.27 1070.84H7122.83C7150 1070.84 7173.04 1079.11 7191.95 1095.65C7210.85 1111.01 7220.3 1129.32 7220.3 1150.59Z" fill="black"/>
<path d="M824.051 638.695C777.003 605.832 765.504 541.042 798.367 493.994C831.23 446.946 896.019 435.447 943.068 468.31C1023.37 524.324 1087.5 598.264 1131.54 682.674C1175.88 767.651 1200 862.598 1200 960.016C1200 1125.66 1132.82 1275.67 1024.24 1384.26C915.658 1492.84 765.646 1560.02 600 1560.02C434.354 1560.02 284.342 1492.84 175.758 1384.26C67.1802 1275.67 0 1125.66 0 960.016C0 862.302 24.2236 767.145 68.7392 682.083C113.095 597.322 177.613 523.184 258.368 467.176C305.638 434.541 370.434 446.404 403.069 493.674C435.704 540.944 423.841 605.739 376.571 638.374C323.848 674.941 281.791 723.203 252.976 778.274C224.304 833.069 208.701 895.264 208.701 960.016C208.701 1068.05 252.514 1165.89 323.318 1236.7C394.127 1307.5 491.965 1351.31 600 1351.31C708.035 1351.31 805.873 1307.5 876.682 1236.7C947.486 1165.89 991.299 1068.05 991.299 960.016C991.299 895.467 975.795 833.481 947.301 778.866C918.511 723.677 876.571 675.329 824.051 638.695Z" fill="#F1AB29"/>
<path fill-rule="evenodd" clip-rule="evenodd" d="M597.801 359.687C655.196 359.687 702.146 406.692 702.146 464.031V652.767C702.146 710.106 655.196 757.111 597.801 757.111C540.407 757.111 493.457 710.162 493.457 652.767V464.031C493.457 406.637 540.407 359.687 597.801 359.687Z" fill="#F1AB29"/>
<path d="M1792.82 579.382C1846.62 579.382 1899.38 585.589 1951.11 598.004C2003.88 610.419 2054.06 629.042 2101.65 653.872C2149.24 677.668 2191.14 709.74 2227.35 750.089C2264.59 790.438 2284.77 838.547 2287.87 894.415V959.594V1454.65C2281.67 1516.72 2247.52 1550.35 2185.45 1555.52C2156.48 1555.52 2131.13 1546.21 2109.41 1527.58C2088.71 1507.93 2078.37 1483.61 2078.37 1454.65V942.523C2076.3 910.451 2063.88 884.069 2041.12 863.377C2019.4 841.651 1994.57 824.58 1966.63 812.165C1939.73 799.75 1911.28 790.438 1881.28 784.231C1852.31 778.023 1822.82 774.919 1792.82 774.919C1762.82 774.919 1732.81 778.023 1702.81 784.231C1673.84 790.438 1645.39 799.75 1617.46 812.165C1590.56 824.58 1565.73 841.651 1542.97 863.377C1521.24 884.069 1509.34 910.451 1507.27 942.523V1454.65C1502.1 1516.72 1468.48 1550.35 1406.4 1555.52C1377.43 1555.52 1352.08 1546.21 1330.36 1527.58C1309.67 1507.93 1299.32 1483.61 1299.32 1454.65V959.594V894.415C1302.42 838.547 1322.08 790.438 1358.29 750.089C1394.5 709.74 1436.4 677.668 1484 653.872C1531.59 629.042 1581.25 610.419 1632.98 598.004C1685.74 585.589 1739.02 579.382 1792.82 579.382Z" fill="#F1AB29"/>
</svg>
