<svg width="11056" height="1955" viewBox="0 0 11056 1955" fill="none" xmlns="http://www.w3.org/2000/svg">
<path d="M2530.02 677.481C2530.02 641.836 2542.11 611.919 2566.3 587.731C2591.76 562.271 2622.32 549.54 2657.96 549.54H3769.33C3804.97 549.54 3835.52 561.634 3860.98 585.822C3885.17 611.283 3897.27 641.836 3897.27 677.481C3897.27 713.126 3884.54 743.679 3859.07 769.14C3834.89 793.327 3804.97 805.421 3769.33 805.421H3343.49V1578.79C3335.86 1655.18 3293.84 1696.55 3217.46 1702.91C3181.82 1702.91 3150.63 1691.46 3123.89 1668.54C3098.43 1644.35 3085.7 1614.44 3085.7 1578.79V805.421H2657.96C2622.32 805.421 2592.4 792.691 2568.21 767.23C2542.75 743.042 2530.02 713.126 2530.02 677.481ZM4062.25 1578.79C4054.61 1655.18 4012.6 1696.55 3936.22 1702.91C3900.58 1702.91 3869.39 1691.46 3842.65 1668.54C3817.19 1644.35 3804.46 1614.44 3804.46 1578.79V673.662C3805.73 638.016 3819.1 608.737 3844.56 585.822C3870.02 561.634 3900.58 549.54 3936.22 549.54H4029.79H4264.67H4736.33C4743.97 549.54 4751.6 550.177 4759.24 551.45H4770.7C4859.81 553.996 4933.01 574.364 4990.3 612.556C5047.59 650.747 5088.96 694.667 5114.42 744.315C5139.88 792.691 5152.61 841.703 5152.61 891.351C5152.61 942.273 5139.88 992.558 5114.42 1042.21C5090.23 1090.58 5048.86 1133.87 4990.3 1172.06C4933.01 1210.25 4859.81 1230.62 4770.7 1233.16H4434.62C4444.8 1296.81 4465.81 1343.92 4497.63 1374.47C4528.18 1405.02 4567.01 1420.3 4614.12 1420.3H5026.58C5062.23 1421.57 5091.51 1434.94 5114.42 1460.4C5138.61 1485.86 5150.7 1516.41 5150.7 1552.06C5149.43 1586.43 5136.7 1615.71 5112.51 1639.9C5089.6 1662.81 5060.95 1674.91 5026.58 1676.18H4579.74C4485.54 1677.45 4400.24 1640.54 4323.86 1565.43C4247.48 1490.32 4201.01 1401.2 4184.46 1298.09C4161.55 1183.51 4150.09 1119.23 4150.09 1105.22C4150.09 1069.58 4162.19 1039.66 4186.37 1015.47C4211.83 990.012 4242.39 977.282 4278.03 977.282H4782.16C4806.34 976.009 4826.08 970.917 4841.35 962.005C4857.9 951.821 4870 941 4877.63 929.543C4885.27 916.812 4889.09 904.082 4889.09 891.351C4889.09 878.621 4885.27 866.527 4877.63 855.07C4870 842.339 4857.9 831.519 4841.35 822.607C4826.08 812.423 4806.34 806.694 4782.16 805.421H4264.67H4111.9C4078.8 806.694 4062.25 823.244 4062.25 855.07V1578.79ZM5495.19 1380.2C5495.19 1344.55 5507.28 1314.64 5531.47 1290.45C5556.93 1264.99 5587.48 1252.26 5623.13 1252.26H5915.29L5865.64 1110.95C5845.27 1058.76 5824.9 1009.74 5804.54 963.915C5785.44 916.812 5763.16 874.165 5737.7 835.974C5714.79 797.783 5688.69 777.414 5659.41 774.868C5628.86 777.414 5601.49 797.783 5577.3 835.974C5553.11 874.165 5530.83 916.812 5510.46 963.915C5491.37 1009.74 5471.64 1058.76 5451.27 1110.95L5269.86 1607.44C5257.13 1634.17 5240.58 1656.45 5220.21 1674.27C5201.11 1690.82 5171.83 1699.1 5132.37 1699.1C5095.45 1699.1 5064.9 1686.37 5040.71 1660.9C5017.8 1635.44 5007.61 1604.89 5010.16 1569.25C5011.43 1552.7 5015.25 1537.42 5021.62 1523.42L5231.67 981.101C5290.23 838.52 5348.79 723.31 5407.35 635.47C5464.63 548.904 5548.65 504.984 5659.41 503.711C5768.89 504.984 5852.27 548.904 5909.56 635.47C5968.12 720.764 6026.68 835.974 6085.24 981.101L6295.29 1523.42C6301.66 1537.42 6305.48 1552.7 6306.75 1569.25C6309.3 1604.89 6298.47 1635.44 6274.29 1660.9C6251.37 1686.37 6221.46 1699.1 6184.54 1699.1C6142.53 1699.1 6111.34 1690.82 6090.97 1674.27C6071.87 1656.45 6055.96 1634.17 6043.23 1607.44L6006.95 1508.14H5623.13C5587.48 1508.14 5557.57 1495.41 5533.38 1469.95C5507.92 1445.76 5495.19 1415.84 5495.19 1380.2ZM6639.78 805.421C6591.4 807.967 6550.66 826.426 6517.56 860.799C6485.74 895.171 6462.82 934.635 6448.82 979.191C6434.82 1022.47 6427.82 1067.03 6427.82 1112.86C6427.82 1158.69 6434.18 1203.88 6446.91 1248.44C6460.91 1293 6484.47 1332.46 6517.56 1366.83C6550.66 1399.93 6591.4 1417.75 6639.78 1420.3H7269.93C7350.13 1427.94 7394.05 1471.86 7401.69 1552.06C7400.42 1587.7 7387.05 1617.62 7361.59 1641.81C7336.13 1664.72 7305.58 1676.18 7269.93 1676.18H6660.78H6572.94C6483.83 1671.09 6410.63 1637.35 6353.34 1574.97C6296.06 1511.32 6254.68 1439.4 6229.22 1359.19C6205.03 1278.99 6192.94 1196.88 6192.94 1112.86C6192.94 1050.48 6199.94 988.739 6213.94 927.633C6227.95 866.527 6249.59 808.604 6278.87 753.863C6309.42 697.849 6349.52 650.11 6399.17 610.646C6450.09 571.182 6508.02 550.813 6572.94 549.54H6609.22H7269.93C7350.13 557.178 7394.05 601.098 7401.69 681.3C7401.69 716.945 7388.32 746.861 7361.59 771.049C7336.13 793.964 7305.58 805.421 7269.93 805.421H6639.78ZM7415.82 518.987C7450.19 520.26 7479.47 532.991 7503.66 557.178C7527.85 580.093 7540.58 608.737 7541.85 643.109V1578.79C7534.22 1655.18 7492.2 1696.55 7415.82 1702.91C7380.18 1702.91 7348.99 1691.46 7322.25 1668.54C7296.79 1644.35 7284.06 1614.44 7284.06 1578.79V643.109C7285.34 607.463 7298.7 578.184 7324.16 555.269C7349.62 531.081 7380.18 518.987 7415.82 518.987ZM7742.36 855.07C7827.65 797.783 7942.86 739.86 8087.99 681.3L8401.16 547.631C8415.16 541.265 8430.44 537.446 8446.98 536.173C8482.63 533.627 8513.18 544.448 8538.64 568.636C8564.1 591.55 8576.84 621.467 8576.84 658.385C8576.84 700.395 8567.92 731.585 8550.1 751.954C8533.55 771.049 8511.91 786.962 8485.18 799.693L8217.84 900.899C8165.64 921.268 8115.99 941.637 8068.89 962.005C8023.06 981.101 7981.05 1003.38 7942.86 1028.84C7904.67 1051.75 7884.3 1077.85 7881.76 1107.13C7884.3 1135.14 7904.67 1161.24 7942.86 1185.42C7981.05 1210.88 8023.06 1233.8 8068.89 1254.17C8115.99 1273.26 8165.64 1293 8217.84 1313.36L8515.73 1422.21C8542.46 1434.94 8564.1 1451.49 8580.65 1471.86C8598.48 1490.95 8607.39 1521.51 8607.39 1563.52C8607.39 1600.43 8594.66 1630.99 8569.2 1655.18C8543.74 1678.09 8513.18 1688.27 8477.54 1685.73C8460.99 1684.46 8445.71 1680.64 8431.71 1674.27L8087.99 1532.96C7942.86 1474.4 7827.01 1416.48 7740.45 1359.19C7655.15 1300.63 7611.87 1216.61 7610.6 1107.13C7611.87 997.65 7655.79 913.63 7742.36 855.07ZM8862.12 549.54H8949.96H9599.21C9634.86 550.813 9664.14 564.18 9687.05 589.641C9711.24 615.102 9723.33 645.655 9723.33 681.3C9716.97 757.682 9675.6 799.056 9599.21 805.421H8927.05C8878.67 807.967 8838.57 826.426 8806.75 860.799C8774.92 895.171 8751.37 934.635 8736.09 979.191C8722.09 1022.47 8715.09 1067.03 8715.09 1112.86C8715.09 1158.69 8722.09 1203.88 8736.09 1248.44C8751.37 1291.72 8774.92 1330.55 8806.75 1364.92C8838.57 1399.29 8878.67 1417.75 8927.05 1420.3H9599.21C9634.86 1421.57 9664.14 1434.94 9687.05 1460.4C9711.24 1485.86 9723.33 1516.41 9723.33 1552.06C9722.06 1586.43 9709.33 1615.71 9685.14 1639.9C9662.23 1662.81 9633.59 1674.91 9599.21 1676.18H8898.4H8862.12C8773.01 1671.09 8699.17 1637.35 8640.61 1574.97C8583.33 1511.32 8541.95 1439.4 8516.49 1359.19C8492.3 1278.99 8480.21 1196.88 8480.21 1112.86C8480.21 1028.84 8492.94 946.729 8518.4 866.527C8543.86 786.326 8585.24 715.035 8642.52 652.656C8699.81 589.004 8773.01 554.632 8862.12 549.54ZM9719.52 1105.22C9719.52 1140.87 9706.79 1170.78 9681.32 1194.97C9657.14 1220.43 9627.22 1233.16 9591.58 1233.16H9014.89C8979.24 1233.16 8948.69 1221.07 8923.23 1196.88C8899.04 1171.42 8886.95 1140.87 8886.95 1105.22C8886.95 1069.58 8899.04 1039.02 8923.23 1013.56C8948.69 989.376 8979.24 977.282 9014.89 977.282H9591.58C9627.22 977.282 9657.14 990.012 9681.32 1015.47C9706.79 1039.66 9719.52 1069.58 9719.52 1105.22ZM9878.77 1578.79C9871.14 1655.18 9829.13 1696.55 9752.74 1702.91C9717.1 1702.91 9685.91 1691.46 9659.17 1668.54C9633.71 1644.35 9620.98 1614.44 9620.98 1578.79V673.662C9622.26 638.016 9635.62 608.737 9661.08 585.822C9686.54 561.634 9717.1 549.54 9752.74 549.54H9846.31H10081.2H10552.8C10560.5 549.54 10568.1 550.177 10575.8 551.45H10587.2C10676.3 553.996 10749.5 574.364 10806.8 612.556C10864.1 650.747 10905.5 694.667 10930.9 744.315C10956.4 792.691 10969.1 841.703 10969.1 891.351C10969.1 942.273 10956.4 992.558 10930.9 1042.21C10906.8 1090.58 10865.4 1133.87 10806.8 1172.06C10749.5 1210.25 10676.3 1230.62 10587.2 1233.16H10251.1C10261.3 1296.81 10282.3 1343.92 10314.2 1374.47C10344.7 1405.02 10383.5 1420.3 10430.6 1420.3H10843.1C10878.7 1421.57 10908 1434.94 10930.9 1460.4C10955.1 1485.86 10967.2 1516.41 10967.2 1552.06C10966 1586.43 10953.2 1615.71 10929 1639.9C10906.1 1662.81 10877.5 1674.91 10843.1 1676.18H10396.3C10302.1 1677.45 10216.8 1640.54 10140.4 1565.43C10064 1490.32 10017.5 1401.2 10001 1298.09C9978.07 1183.51 9966.61 1119.23 9966.61 1105.22C9966.61 1069.58 9978.71 1039.66 10002.9 1015.47C10028.4 990.012 10058.9 977.282 10094.6 977.282H10598.7C10622.9 976.009 10642.6 970.917 10657.9 962.005C10674.4 951.821 10686.5 941 10694.2 929.543C10701.8 916.812 10705.6 904.082 10705.6 891.351C10705.6 878.621 10701.8 866.527 10694.2 855.07C10686.5 842.339 10674.4 831.519 10657.9 822.607C10642.6 812.423 10622.9 806.694 10598.7 805.421H10081.2H9928.42C9895.32 806.694 9878.77 823.244 9878.77 855.07V1578.79Z" fill="url(#paint0_linear_924_3496)"/>
<path d="M824.051 801.696C777.003 768.833 765.504 704.043 798.367 656.995C831.23 609.947 896.019 598.448 943.068 631.311C1023.37 687.325 1087.5 761.265 1131.54 845.675C1175.88 930.652 1200 1025.6 1200 1123.02C1200 1288.66 1132.82 1438.67 1024.24 1547.26C915.658 1655.84 765.646 1723.02 600 1723.02C434.354 1723.02 284.342 1655.84 175.758 1547.26C67.1802 1438.67 0 1288.66 0 1123.02C0 1025.3 24.2236 930.146 68.7392 845.084C113.095 760.323 177.613 686.185 258.368 630.177C305.638 597.542 370.434 609.404 403.069 656.675C435.704 703.945 423.841 768.74 376.571 801.375C323.848 837.942 281.791 886.204 252.976 941.275C224.304 996.07 208.701 1058.26 208.701 1123.02C208.701 1231.05 252.514 1328.89 323.318 1399.7C394.127 1470.5 491.965 1514.32 600 1514.32C708.035 1514.32 805.873 1470.5 876.682 1399.7C947.486 1328.89 991.299 1231.05 991.299 1123.02C991.299 1058.47 975.795 996.482 947.301 941.867C918.511 886.678 876.571 838.33 824.051 801.696Z" fill="white"/>
<path fill-rule="evenodd" clip-rule="evenodd" d="M597.801 522.688C655.196 522.688 702.146 569.693 702.146 627.032V815.767C702.146 873.107 655.196 920.112 597.801 920.112C540.407 920.112 493.457 873.162 493.457 815.767V627.032C493.457 569.637 540.407 522.688 597.801 522.688Z" fill="white"/>
<path d="M1655.45 517.982C1721.65 517.982 1786.58 525.62 1850.23 540.897C1915.15 556.173 1976.89 579.088 2035.45 609.641C2094.01 638.921 2145.57 678.385 2190.13 728.034C2235.96 777.682 2260.78 836.879 2264.6 905.623V985.824V1594.97C2256.96 1671.36 2214.95 1712.73 2138.57 1719.1C2102.93 1719.1 2071.74 1707.64 2045 1684.72C2019.54 1660.54 2006.81 1630.62 2006.81 1594.97V964.819C2004.27 925.355 1988.99 892.893 1960.98 867.432C1934.25 840.698 1903.69 819.693 1869.32 804.416C1836.22 789.14 1801.22 777.682 1764.3 770.044C1728.65 762.406 1692.37 758.587 1655.45 758.587C1618.53 758.587 1581.62 762.406 1544.7 770.044C1509.05 777.682 1474.04 789.14 1439.67 804.416C1406.57 819.693 1376.02 840.698 1348.01 867.432C1321.28 892.893 1306.64 925.355 1304.09 964.819V1594.97C1297.73 1671.36 1256.35 1712.73 1179.97 1719.1C1144.33 1719.1 1113.14 1707.64 1086.4 1684.72C1060.94 1660.54 1048.21 1630.62 1048.21 1594.97V985.824V905.623C1052.03 836.879 1076.22 777.682 1120.78 728.034C1165.33 678.385 1216.89 638.921 1275.45 609.641C1334.01 579.088 1395.12 556.173 1458.77 540.897C1523.69 525.62 1589.25 517.982 1655.45 517.982Z" fill="white"/>
<defs>
<linearGradient id="paint0_linear_924_3496" x1="6637.5" y1="606.5" x2="6709.52" y2="1975.23" gradientUnits="userSpaceOnUse">
<stop offset="0.0240385" stop-color="#F1AB29"/>
<stop offset="1" stop-color="#5F00A3"/>
</linearGradient>
</defs>
</svg>
